PathFileType	4	(X/Y/Z)	..\data\SUBJ01\dynamic\walk.trc
DataRate	CameraRate	NumFrames	NumMarkers	Units	OrigDataRate	OrigDataStartFrame	OrigNumFrames
100.000000	100.000000	10	21	mm	100.000000	53	337
Frame#	Time	C7			T10			CLAV			STRN			LSHO			RSHO			LASI			RASI			SACR			LTHI			LKNE			LTIB			LANK			LHEE			LTOE			RTHI			RKNE			RTIB			RANK			RHEE			RTOE			
		X1	Y1	Z1	X2	Y2	Z2	X3	Y3	Z3	X4	Y4	Z4	X5	Y5	Z5	X6	Y6	Z6	X7	Y7	Z7	X8	Y8	Z8	X9	Y9	Z9	X10	Y10	Z10	X11	Y11	Z11	X12	Y12	Z12	X13	Y13	Z13	X14	Y14	Z14	X15	Y15	Z15	X16	Y16	Z16	X17	Y17	Z17	X18	Y18	Z18	X19	Y19	Z19	X20	Y20	Z20	X21	Y21	Z21	

54	1.48	445.2275695800782	1332.86669921875	22.04595035062721	379.8021240234376	1112.3115234375	22.04595035062721	592.4061279296876	1232.757934570313	21.95847742216747	649.3264770507814	1075.3505859375	22.04595035062721	505.0587768554689	1298.5615234375	-152.0801736032232	511.395965576172	1260.88427734375	192.0803046712631	561.1807861328126	843.6196289062502	-120.859251464656	577.2227783203126	832.462829589844	160.859251464656	394.0187988281251	853.502624511719	20	432.6465759277345	591.5045776367189	-196.594804781495	387.2669982910157	417.5134582519532	-109.6938565403288	268.3490295410157	204.0399627685547	-159.4973066312762	222.6737213134766	84.41833496093751	-111.7562165806763	159.3827514648438	92.59305572509767	-65.58032746445977	318.6922912597657	46.14509582519532	-74.43897087404167	593.3152465820314	555.5098266601564	213.5914694104505	683.1575927734376	427.1315307617189	149.1302321308147	757.1394042968751	195.3770751953126	196.2680469139518	791.4202880859377	72.55757141113283	152.8880051473318	746.3388671875001	49.40695571899415	105.7255595369172	906.3081054687502	87.01942443847658	114.6938823150058	
55	1.49	456.8847045898439	1331.717651367188	22.04595035062721	391.9161987304689	1111.069946289063	22.04595035062721	604.2500000000001	1231.924438476563	21.95847742216747	661.5979614257814	1074.679565429688	22.04595035062721	516.6214599609376	1297.69384765625	-152.0801736032232	523.1268310546876	1259.411865234375	192.0803046712631	573.9663085937501	842.318054199219	-120.859251464656	589.9172973632814	832.1790771484377	160.859251464656	406.7116699218751	852.4132080078127	20	445.020965576172	590.5469970703126	-196.594804781495	398.9713745117189	416.7679138183595	-109.6938565403288	275.0350341796876	206.3178863525391	-159.4973066312762	225.5125427246094	88.08032989501955	-111.7562165806763	162.5565490722657	98.58207702636722	-65.58032746445977	319.8781127929688	46.29223251342774	-74.43897087404167	608.1660156250001	556.2483520507814	213.5914694104505	698.4071655273439	427.0445251464845	149.1302321308147	765.7291259765626	193.4842987060547	196.2680469139518	795.6024169921877	70.1559295654297	152.8880051473318	749.5824584960939	48.78089904785158	105.7255595369172	910.284118652344	81.25836181640626	114.6938823150058	
56	1.5	468.630584716797	1330.844604492188	22.04595035062721	404.1013793945314	1110.096069335938	22.04595035062721	616.1777343750001	1231.383178710938	21.95847742216747	673.9877319335939	1074.321533203125	22.04595035062721	528.2981567382814	1297.10791015625	-152.0801736032232	534.9221191406251	1258.193115234375	192.0803046712631	586.8596801757814	841.2764892578127	-120.859251464656	602.7700195312501	832.355651855469	160.859251464656	419.4861145019532	851.5706176757815	20	457.8306579589845	589.6282958984376	-196.594804781495	411.6355895996095	416.0023803710939	-109.6938565403288	282.4856262207032	208.9740905761719	-159.4973066312762	229.0470275878907	92.35091400146486	-111.7562165806763	166.6497650146485	105.3963851928711	-65.58032746445977	321.2406616210938	46.4668312072754	-74.43897087404167	623.1235961914064	557.3686523437501	213.5914694104505	713.5565795898439	426.5538635253907	149.1302321308147	774.0259399414065	191.7418975830078	196.2680469139518	799.1840820312502	67.94792938232423	152.8880051473318	752.0595092773439	48.39035034179689	105.7255595369172	913.6096801757815	75.42848968505861	114.6938823150058	
57	1.51	480.4537048339845	1330.269287109375	22.04595035062721	416.3304443359376	1109.409790039063	22.04595035062721	628.1723632812501	1231.149047851563	21.95847742216747	686.4655761718751	1074.285888671875	22.04595035062721	540.0714111328126	1296.83837890625	-152.0801736032232	546.7948608398439	1257.258422851563	192.0803046712631	599.8172607421876	840.5128173828127	-120.859251464656	615.7324829101564	833.0042114257815	160.859251464656	432.2989196777345	850.989440917969	20	471.1192321777345	588.7471923828126	-196.594804781495	425.3744506835939	415.1961975097657	-109.6938565403288	290.8249206542969	212.0554504394532	-159.4973066312762	233.4214782714844	97.28428649902347	-111.7562165806763	171.857177734375	113.0860900878907	-65.58032746445977	322.8163452148438	46.71257400512696	-74.43897087404167	638.0322875976564	558.8225097656251	213.5914694104505	728.4121704101564	425.7786254882814	149.1302321308147	782.0954589843752	190.2136535644532	196.2680469139518	802.3469238281252	66.0474319458008	152.8880051473318	754.0248413085939	48.26479721069337	105.7255595369172	916.467224121094	69.82681274414064	114.6938823150058	
58	1.52	492.3359680175782	1330.000610351563	22.04595035062721	428.5754699707032	1109.016967773438	22.04595035062721	640.2124633789064	1231.223510742188	21.95847742216747	698.9945678710939	1074.567626953125	22.04595035062721	551.9214477539064	1296.907592773438	-152.0801736032232	558.7554931640626	1256.629028320313	192.0803046712631	612.7953491210939	840.0312500000002	-120.859251464656	628.7463378906251	834.111999511719	160.859251464656	445.106903076172	850.6721801757815	20	484.9228515625001	587.9005737304689	-196.594804781495	440.285369873047	414.3274536132814	-109.6938565403288	300.1776428222657	215.6022033691407	-159.4973066312762	238.7814941406251	102.9171218872071	-111.7562165806763	178.3717193603516	121.6717987060547	-65.58032746445977	324.6649780273438	47.09735488891602	-74.43897087404167	652.7869262695314	560.5765380859376	213.5914694104505	742.8186645507814	424.8895263671876	149.1302321308147	789.9380493164065	188.9216461181641	196.2680469139518	805.1954345703127	64.51430511474611	152.8880051473318	755.6554565429689	48.39518356323244	105.7255595369172	918.9661865234377	64.68148040771486	114.6938823150058	
59	1.53	504.2518920898439	1330.031982421875	22.04595035062721	440.8094787597657	1108.910034179688	22.04595035062721	652.2727661132814	1231.594604492188	21.95847742216747	711.5333251953126	1075.147216796875	22.04595035062721	563.8265380859376	1297.322265625	-152.0801736032232	570.8089599609376	1256.315063476563	192.0803046712631	625.7529296875001	839.8218994140627	-120.859251464656	641.7509765625001	835.6419677734377	160.859251464656	457.8698120117189	850.609313964844	20	499.2636718750001	587.0856933593751	-196.594804781495	456.4375915527345	413.377410888672	-109.6938565403288	310.6607360839844	219.6433563232422	-159.4973066312762	245.2676391601563	109.2631988525391	-111.7562165806763	186.3703308105469	131.1353149414063	-65.58032746445977	326.8791198730469	47.71254348754884	-74.43897087404167	667.3164062500001	562.5963745117189	213.5914694104505	756.6506958007814	424.0632629394532	149.1302321308147	797.497497558594	187.8505554199219	196.2680469139518	807.776550292969	63.35727691650392	152.8880051473318	757.0615234375001	48.74098205566408	105.7255595369172	921.1627197265627	60.14292907714845	114.6938823150058	
60	1.54	516.1697998046876	1330.342529296875	22.04595035062721	453.0072021484376	1109.068969726563	22.04595035062721	664.3255004882814	1232.23779296875	21.95847742216747	724.0391845703126	1075.992919921875	22.04595035062721	575.7623291015626	1298.070434570313	-152.0801736032232	582.9520874023439	1256.314819335938	192.0803046712631	638.6534423828126	839.8614501953127	-120.859251464656	654.6893310546876	837.5361328125002	160.859251464656	470.5518493652345	850.7818603515627	20	514.1466674804689	586.3027343750001	-196.594804781495	473.863739013672	412.3359985351564	-109.6938565403288	322.3757019042969	224.1915283203126	-159.4973066312762	253.0093231201172	116.3079147338867	-111.7562165806763	195.999252319336	141.4118194580078	-65.58032746445977	329.5922851562501	48.66754531860353	-74.43897087404167	681.5584716796876	564.8274536132814	213.5914694104505	769.803161621094	423.4379272460939	149.1302321308147	804.6821899414065	186.9593658447266	196.2680469139518	810.1025390625002	62.54447555541994	152.8880051473318	758.3025512695314	49.24248504638673	105.7255595369172	923.0812988281252	56.28604125976564	114.6938823150058	
61	1.55	528.0544433593751	1330.899780273438	22.04595035062721	465.1451721191407	1109.46630859375	22.04595035062721	676.3416137695314	1233.11962890625	21.95847742216747	736.4711303710939	1077.063720703125	22.04595035062721	587.7005004882814	1299.122192382813	-152.0801736032232	595.1736450195314	1256.615356445313	192.0803046712631	651.4648437500001	840.1163330078127	-120.859251464656	667.5120239257814	839.7208251953127	160.859251464656	483.1222534179689	851.1648559570315	20	529.5594482421876	585.5558471679689	-196.594804781495	492.5546875000001	411.2079162597657	-109.6938565403288	335.4019775390626	229.2377624511719	-159.4973066312762	262.1191101074219	124.0031127929688	-111.7562165806763	207.3605194091797	152.3850708007813	-65.58032746445977	332.9843444824219	50.07929611206056	-74.43897087404167	695.4352416992189	567.1815795898439	213.5914694104505	782.184020996094	423.0814514160157	149.1302321308147	811.3918457031252	186.1958160400391	196.2680469139518	812.170349121094	62.01789474487306	152.8880051473318	759.4045410156251	49.83398437500001	105.7255595369172	924.7329711914065	53.12076950073244	114.6938823150058	
62	1.56	539.8710327148439	1331.665283203125	22.04595035062721	477.2015991210939	1110.071166992188	22.04595035062721	688.2929687500001	1234.201171875	21.95847742216747	748.7927856445314	1078.313842773438	22.04595035062721	599.6082153320314	1300.431884765625	-152.0801736032232	607.4548950195314	1257.194213867188	192.0803046712631	664.1590576171876	840.5474243164065	-120.859251464656	680.1791381835939	842.1135864257815	160.859251464656	495.5552673339845	851.732116699219	20	545.4742431640626	584.8535766601564	-196.594804781495	512.4583740234376	410.0178527832032	-109.6938565403288	349.7919921875001	234.7470245361329	-159.4973066312762	272.6875915527344	132.2631988525391	-111.7562165806763	220.5014648437501	163.8870391845703	-65.58032746445977	337.2814331054688	52.05754470825197	-74.43897087404167	708.8419189453126	569.5361938476564	213.5914694104505	793.7131347656252	422.9804077148439	149.1302321308147	817.5420532226565	185.5092926025391	196.2680469139518	813.9749145507815	61.70803451538087	152.8880051473318	760.3745117187501	50.45480346679689	105.7255595369172	926.1271972656252	50.60771942138673	114.6938823150058	
63	1.57	551.5897827148439	1332.599487304688	22.04595035062721	489.1563720703126	1110.853881835938	22.04595035062721	700.1541748046876	1235.442504882813	21.95847742216747	760.9746093750001	1079.69775390625	22.04595035062721	611.4483032226564	1301.94287109375	-152.0801736032232	619.7717895507814	1258.021606445313	192.0803046712631	676.7114257812501	841.1163330078127	-120.859251464656	692.6602172851564	844.630554199219	160.859251464656	507.8299560546876	852.459655761719	20	561.8494873046876	584.2088012695314	-196.594804781495	533.4824218750001	408.8138732910157	-109.6938565403288	365.5672607421876	240.655502319336	-159.4973066312762	284.7789306640626	140.9642028808594	-111.7562165806763	235.4086456298829	175.7032165527344	-65.58032746445977	342.7485961914063	54.6879119873047	-74.43897087404167	721.6537475585939	571.7490844726564	213.5914694104505	804.324890136719	423.0508117675782	149.1302321308147	823.0798950195315	184.8595733642578	196.2680469139518	815.5163574218752	61.54605102539064	152.8880051473318	761.2122192382814	51.05665969848634	105.7255595369172	927.2778320312502	48.67506027221681	114.6938823150058	
